HIERARCHY
ROOT Bip001_Pelvis
{
  OFFSET 7.937 94.8971 -8.5489
  CHANNELS 6 Xposition Yposition Zposition Zrotation Xrotation Yrotation
  JOINT Bip001_Spine
  {
    OFFSET 1.44608e-005 10.4157 -0.0118244
    CHANNELS 3 Zrotation Xrotation Yrotation
    JOINT Bip001_L_Thigh
    {
      OFFSET 11.2582 -10.4157 0.0118432
      CHANNELS 3 Zrotation Xrotation Yrotation
      JOINT Bip001_L_Calf
      {
        OFFSET -0.720717 -44.8687 0.366937
        CHANNELS 3 Zrotation Xrotation Yrotation
        JOINT Bip001_L_Foot
        {
          OFFSET -0.664439 -41.3745 -3.62995
          CHANNELS 3 Zrotation Xrotation Yrotation
          JOINT Bip001_L_Toe0
          {
            OFFSET 0.0541047 -10.4146 13.4033
            CHANNELS 3 Zrotation Xrotation Yrotation
            End Site
            {
              OFFSET -1.04503e-005 0 7.70137
            }
          }
        }
      }
    }
    JOINT Bip001_R_Thigh
    {
      OFFSET -11.2582 -10.4156 0.0118122
      CHANNELS 3 Zrotation Xrotation Yrotation
      JOINT Bip001_R_Calf
      {
        OFFSET 0.72059 -44.8687 0.36676
        CHANNELS 3 Zrotation Xrotation Yrotation
        JOINT Bip001_R_Foot
        {
          OFFSET 0.664321 -41.3745 -3.62979
          CHANNELS 3 Zrotation Xrotation Yrotation
          JOINT Bip001_R_Toe0
          {
            OFFSET -0.05417 -10.4146 13.4033
            CHANNELS 3 Zrotation Xrotation Yrotation
            End Site
            {
              OFFSET -1.04873e-005 0 7.70137
            }
          }
        }
      }
    }
    JOINT Bip001_Spine1
    {
      OFFSET 1.90638e-005 14.8539 1.10727
      CHANNELS 3 Zrotation Xrotation Yrotation
      JOINT Bip001_Spine2
      {
        OFFSET 2.28934e-005 14.7848 -1.7233
        CHANNELS 3 Zrotation Xrotation Yrotation
        JOINT Bip001_Neck
        {
          OFFSET 2.24514e-005 15.6905 -0.498826
          CHANNELS 3 Zrotation Xrotation Yrotation
          JOINT Bip001_L_Clavicle
          {
            OFFSET 6.17691 -0.000591152 0.00852867
            CHANNELS 3 Zrotation Xrotation Yrotation
            JOINT Bip001_L_UpperArm
            {
              OFFSET 11.773 -0.0611878 0.00197697
              CHANNELS 3 Zrotation Xrotation Yrotation
              JOINT Bip001_L_Forearm
              {
                OFFSET 26.4515 0.0817568 -2.19579
                CHANNELS 3 Zrotation Xrotation Yrotation
                JOINT Bip001_L_Hand
                {
                  OFFSET 32.8677 0.156744 1.67112
                  CHANNELS 3 Zrotation Xrotation Yrotation
                  JOINT Bip001_L_Finger0
                  {
                    OFFSET 6.16268 -2.25226 6.01674
                    CHANNELS 3 Zrotation Xrotation Yrotation
                    End Site
                    {
                      OFFSET 4.30499 -1.46662 0.618148
                    }
                  }
                  JOINT Bip001_L_Finger1
                  {
                    OFFSET 11.2957 -0.718374 -0.201963
                    CHANNELS 3 Zrotation Xrotation Yrotation
                    End Site
                    {
                      OFFSET 6.31952 -0.405163 -0.0802303
                    }
                  }
                }
              }
            }
          }
          JOINT Bip001_R_Clavicle
          {
            OFFSET -6.17691 -0.000574027 0.00851165
            CHANNELS 3 Zrotation Xrotation Yrotation
            JOINT Bip001_R_UpperArm
            {
              OFFSET -11.773 -0.0611516 0.00194365
              CHANNELS 3 Zrotation Xrotation Yrotation
              JOINT Bip001_R_Forearm
              {
                OFFSET -26.4514 0.0822334 -2.19736
                CHANNELS 3 Zrotation Xrotation Yrotation
                JOINT Bip001_R_Hand
                {
                  OFFSET -32.8677 0.156817 1.67144
                  CHANNELS 3 Zrotation Xrotation Yrotation
                  JOINT Bip001_R_Finger0
                  {
                    OFFSET -6.1627 -2.25224 6.0167
                    CHANNELS 3 Zrotation Xrotation Yrotation
                    End Site
                    {
                      OFFSET -4.30499 -1.46662 0.618134
                    }
                  }
                  JOINT Bip001_R_Finger1
                  {
                    OFFSET -11.2958 -0.718344 -0.201994
                    CHANNELS 3 Zrotation Xrotation Yrotation
                    End Site
                    {
                      OFFSET -6.31952 -0.405146 -0.0802475
                    }
                  }
                }
              }
            }
          }
          JOINT Bip001_Head
          {
            OFFSET 1.11782e-005 11.4912 2.09908
            CHANNELS 3 Zrotation Xrotation Yrotation
            End Site
            {
              OFFSET 2.95144e-005 21.2823 -2.83069e-005
            }
          }
        }
      }
    }
  }
}
MOTION
Frames:	16
Frame Time:	0.04
6.03251 95.6168 -8.21632 -0.0811942 -2.58018 5.33905 0.00391254 0.941101 -0.0681557 6.67509 -6.57222 7.9004 -1.03657 13.7337 -2.71103 -3.79309 -4.65898 -1.53683 0.560437 -9.8892 0.138387 -6.61467 -3.12989 -0.570707 0.651233 14.2995 0.578514 0.10535 -8.50622 -11.8329 -1.07584 -11.3838 0.289128 -0.174901 1.9005 -0.157448 -0.174903 1.90049 -0.157472 -1.7718 -2.80505 -1.57971 -28.1212 8.43025 -11.8892 -51.7044 40.4984 8.75377 13.437 2.44888 -25.537 -4.96493 -0.544369 -0.237016 -3.18055e-015 -9.54166e-015 -0 -1.59028e-015 -3.18056e-015 -0 34.3421 10.4794 14.4929 58.3045 37.7682 -19.4255 -4.69598 -15.5426 20.5136 15.0196 1.59994 -21.666 1.59028e-015 -6.36111e-015 -1.59028e-015 3.18055e-015 -6.36111e-015 -1.59028e-015 -1.40066 -0.502232 -1.71482 
6.03737 95.6111 -8.20791 -0.0893265 -2.59823 5.443 0.00391254 0.941101 -0.0681557 6.69143 -6.60848 7.75413 -1.07453 13.8068 -2.63822 -3.78417 -4.67971 -1.56053 0.560491 -9.8892 0.138705 -6.61012 -3.08195 -0.494834 0.69999 14.295 0.550044 0.0702808 -8.5239 -11.9755 -1.08351 -11.3838 0.271383 -0.174962 1.87849 -0.157446 -0.174964 1.87849 -0.15747 -1.74211 -2.6602 -1.57401 -28.2147 8.29939 -11.9375 -51.9583 40.7154 9.04703 13.4905 2.28583 -25.4998 -4.94066 -0.558332 -0.293628 1.59028e-015 -3.18055e-015 -1.59028e-015 0 0 -0 34.2946 10.2771 14.3726 58.6691 38.5245 -20.3755 -4.81225 -18.0448 23.7457 12.0952 1.46543 -20.8751 0 0 -0 -1.59028e-015 -3.18056e-015 -0 -1.41455 -0.44938 -1.70029 
6.03811 95.6065 -8.18872 -0.0962982 -2.64232 5.52125 0.00383635 0.941101 -0.063517 6.68508 -6.59966 7.99557 -0.973113 13.8749 -2.80617 -3.80428 -4.70096 -1.72561 0.560731 -9.88921 0.140097 -6.59751 -2.99688 -0.544624 0.674958 14.2776 0.513272 0.108602 -8.55071 -11.9569 -1.0967 -11.3838 0.27201 -0.15224 1.87921 -0.129463 -0.152264 1.87919 -0.129413 -2.03577 -2.72115 -1.54089 -28.0096 8.35485 -11.8316 -52.0034 40.8334 8.99423 13.4789 2.3655 -25.3237 -5.15458 -0.594796 -0.340167 -1.59028e-015 -3.18055e-015 -1.59028e-015 -3.53113e-031 -6.36111e-015 -3.18055e-015 34.5772 10.3457 14.4033 59.1256 37.8946 -22.0122 -5.88183 -19.9462 29.396 8.91215 2.11072 -22.3063 7.95139e-016 6.36111e-015 -0 1.59028e-015 0 -0 -1.28307 -0.203268 -1.77344 
6.03383 95.587 -8.15368 -0.0908469 -2.67608 5.68397 0.00433896 0.941102 -0.0289394 6.67957 -6.66248 7.6765 -1.01285 14.0258 -2.81237 -3.81263 -4.77674 -1.60713 0.58466 -9.88961 0.143696 -6.61887 -2.94328 -2.27427 0.260597 14.4226 1.28875 0.26617 -8.65732 -11.1756 -1.09254 -11.406 0.320325 -0.146378 1.88441 -0.0593497 -0.147205 1.88441 -0.0594486 -2.2667 -2.86039 -1.55244 -27.7584 8.46305 -11.7311 -51.8918 40.8351 8.66724 13.3344 2.65607 -25.1262 -5.11866 -0.56133 -0.225293 -1.59028e-015 0 1.59028e-015 -3.18055e-015 0 3.18055e-015 34.6306 10.4145 14.2862 58.2269 34.4379 -22.8726 -8.6408 -17.6102 36.7497 7.2798 3.11306 -24.2788 -1.52194e-015 6.36111e-015 7.0817e-016 -1.93504e-015 0 1.28434e-015 -1.1561 -0.0852062 -1.87068 
6.01284 95.5892 -8.11819 -0.0948876 -2.69304 5.93134 0.0094334 0.941102 0.00677491 6.69383 -6.67742 7.56924 -1.0263 14.0228 -2.92776 -3.79396 -4.76274 -1.66795 0.573252 -9.89085 0.140266 -6.56767 -2.80479 -0.997473 0.605482 14.3125 0.473874 0.148297 -8.67509 -11.9241 -1.10504 -11.3819 0.271223 -0.14549 1.8822 0.0125342 -0.144895 1.8822 0.0125423 -2.55122 -2.93359 -1.52344 -27.3749 8.53928 -11.7193 -51.9519 40.7663 8.52715 13.3287 2.75029 -25.063 -4.9765 -0.58426 -0.0325803 -8.82781e-032 3.18055e-015 1.59028e-015 1.59028e-015 3.18056e-015 -0 34.3847 10.3417 14.1883 56.1409 28.6471 -22.7654 -13.9968 -11.4982 45.2732 8.13738 2.17341 -23.5772 -2.38542e-015 -9.54166e-015 -7.95139e-016 1.59028e-015 -9.54167e-015 -7.95139e-016 -0.908403 -0.0496203 -1.9731 
6.00286 95.5826 -8.06902 -0.197092 -2.68351 6.26207 0.0395471 0.918893 0.0255519 6.784 -6.83191 7.58027 -0.982303 14.266 -2.90277 -3.79335 -4.85654 -2.0223 0.545304 -9.89408 0.0974885 -6.43705 -2.61088 -0.675279 0.670006 14.1261 0.0923562 0.117688 -8.64772 -12.1998 -1.09592 -11.3798 0.240934 -0.0791062 1.83778 0.0490673 -0.079353 1.83778 0.0492852 -3.04303 -2.96294 -1.49528 -26.8185 8.56518 -11.6755 -51.63 39.7942 7.92112 13.1091 3.78848 -24.821 -5.28037 -0.440424 -0.720953 -1.59028e-015 3.18055e-015 -1.59028e-015 -1.59028e-015 -3.18056e-015 -3.18055e-015 34.096 10.2415 14.2573 52.6341 19.8348 -22.6776 -18.4822 -4.98851 58.914 6.1479 2.79338 -23.0709 -1.76556e-031 -6.36111e-015 -1.59028e-015 -3.18055e-015 -6.36111e-015 -1.59028e-015 -0.57257 0.095194 -2.15088 
6.0857 95.5776 -8.01839 0.114739 -2.65664 6.55641 -0.0257114 0.897497 0.0599865 6.41064 -6.6627 7.56171 -0.866708 13.9017 -3.12216 -3.79586 -4.65126 -2.09722 0.560027 -9.90105 0.0833722 -6.78832 -2.62041 -1.09476 0.714894 14.4618 0.255872 0.147619 -8.91993 -12.2311 -1.1196 -11.3799 0.221283 -0.211833 1.79487 0.119904 -0.211834 1.79487 0.119907 -3.24449 -2.91369 -1.59001 -26.4224 8.51469 -11.7723 -52.2366 40.4506 8.68531 13.3143 2.60166 -25.329 -5.21763 -0.476277 -0.552741 1.59028e-015 -6.36111e-015 -1.59028e-015 -0 -3.18056e-015 -0 33.357 10.116 14.4864 47.5751 7.65315 -22.2293 -24.3476 2.33458 76.1279 4.47254 3.31071 -19.7848 -9.54166e-015 -3.18055e-015 3.18055e-015 -3.18055e-015 0 -0 -0.451002 0.226212 -2.32508 
6.16699 95.5837 -7.90892 0.271104 -3.04868 7.09877 -0.061839 0.963551 0.0108588 6.23024 -6.30355 6.80571 -0.919993 13.7566 -2.96298 -3.76087 -4.58774 -2.00647 0.572587 -9.90285 0.0782281 -6.92847 -2.01601 -2.07149 0.600592 14.3604 0.613671 0.202603 -9.00308 -12.0359 -1.0988 -11.3799 0.23056 -0.282206 1.92708 0.0241468 -0.282205 1.92707 0.0241452 -3.3498 -2.85845 -1.63007 -26.1858 8.42833 -11.7519 -52.557 40.3784 9.29006 13.6847 2.48297 -25.8064 -5.22031 -0.528089 -0.650615 -1.59028e-015 -6.36111e-015 3.18055e-015 -1.59028e-015 -9.54167e-015 4.77083e-015 32.1558 9.83636 14.56 43.7074 0.249968 -19.0122 -26.5636 3.80086 90.5209 1.7211 3.41744 -17.0956 6.36111e-015 1.59028e-015 -0 6.36111e-015 1.59028e-015 -0 -0.262811 0.204024 -2.44007 
6.06439 95.5806 -8.1307 0.0166901 -2.59772 6.6716 -0.0492717 0.853088 0.146486 6.58888 -6.85913 7.11876 -1.0837 14.0277 -2.87417 -3.71331 -4.61436 -2.0526 0.562645 -9.90406 0.0728497 -6.57663 -2.65721 -0.882363 0.637186 14.382 0.0619246 0.137147 -8.79061 -12.4364 -1.06776 -11.38 0.199989 -0.256052 1.70585 0.292633 -0.255532 1.70584 0.292811 -3.39371 -2.79002 -1.66181 -26.1373 8.31941 -11.6565 -51.9755 39.6189 8.96796 13.7483 3.86257 -25.8581 -5.04972 -0.459511 -0.814684 -0 -3.18055e-015 -0 3.18055e-015 -3.18056e-015 -1.59028e-015 30.2745 9.3941 14.5784 41.4932 -3.03191 -11.6431 -28.9467 1.0881 99.8232 -2.51475 5.93344 -15.2282 5.8967e-031 -9.44227e-015 3.57812e-015 1.59028e-015 -5.36719e-015 1.59028e-015 -0.0807857 0.0879342 -2.52363 
6.13474 95.5784 -8.18458 0.0473324 -2.64697 6.5377 -0.092057 0.845485 0.218136 6.51235 -6.80792 7.28095 -0.955987 14.0256 -3.05607 -3.71445 -4.6167 -2.00108 0.574163 -9.90508 0.0880153 -6.64839 -2.6706 -1.01171 0.675723 14.4251 0.333667 0.115799 -8.76387 -12.4912 -1.05947 -11.3808 0.182258 -0.339807 1.69034 0.43687 -0.339581 1.69033 0.436888 -3.13814 -2.62087 -1.7372 -26.2514 8.08562 -11.6055 -51.7446 40.1746 8.89963 13.4135 2.76109 -25.7204 -5.15219 -0.433939 -0.805005 1.59028e-015 6.36111e-015 -3.18055e-015 3.18055e-015 0 -4.77083e-015 28.0242 8.84705 14.6156 39.6206 -7.10764 -0.0756048 -33.3573 -2.09121 104.76 -7.84027 6.76614 -13.9604 -7.95139e-016 4.57205e-015 3.18055e-015 -1.59028e-015 5.76476e-015 3.18055e-015 -0.0932928 0.032628 -2.52767 
6.16496 95.5777 -8.27596 0.0385547 -2.58406 6.4296 -0.105471 0.814875 0.308847 6.47226 -6.89339 7.59721 -0.811154 14.0486 -3.31396 -3.72433 -4.58658 -2.05676 0.573512 -9.90632 0.0891489 -6.67606 -2.80086 -1.07307 0.701841 14.4719 0.508209 0.063577 -8.70337 -12.575 -1.02977 -11.3826 0.153014 -0.369207 1.62879 0.617493 -0.363488 1.62877 0.617909 -2.95364 -2.47287 -1.83311 -26.519 7.91719 -11.5941 -51.3401 40.2876 8.67084 13.2955 2.62546 -25.3523 -5.20576 -0.47018 -0.265475 -1.59028e-015 6.36111e-015 1.59028e-015 -1.59028e-015 6.36111e-015 1.59028e-015 25.0743 8.35254 15.2549 39.7016 -11.1157 13.5913 -33.7999 -3.23841 105.723 -14.416 9.87963 -10.9655 -0 -9.54166e-015 -0 -4.41391e-031 -7.95139e-015 -3.18055e-015 -0.351871 0.164798 -2.51839 
6.18146 95.5842 -8.3357 0.0329997 -2.53968 6.45276 -0.118458 0.806464 0.391409 6.41961 -6.96825 8.02376 -0.599056 14.0257 -3.61483 -3.77639 -4.51228 -2.28578 0.571911 -9.9082 0.0645209 -6.69788 -2.8465 -1.23504 0.727308 14.4419 0.650949 0.00718098 -8.63964 -12.666 -0.998882 -11.385 0.149208 -0.3849 1.61142 0.783514 -0.387234 1.61142 0.783282 -2.8378 -2.38929 -1.95817 -26.608 7.82043 -11.6212 -50.8772 40.2166 8.30152 13.195 2.62679 -25.0648 -5.31742 -0.517934 -0.128253 1.59028e-015 0 -4.77083e-015 -1.76556e-031 -3.18056e-015 -3.18055e-015 21.5824 8.00456 16.7873 41.9882 -15.9117 27.0796 -38.5783 -4.44343 103.366 -18.6372 10.6835 -9.57665 -9.54166e-015 0 -3.18055e-015 -9.54166e-015 3.18056e-015 -3.18055e-015 -0.564643 0.233191 -2.56251 
6.17895 95.5932 -8.38549 6.75738e-005 -2.41378 6.59185 -0.131536 0.792709 0.502142 6.43701 -7.15414 8.13974 -0.533278 14.0245 -3.67953 -3.78859 -4.42687 -2.54017 0.568064 -9.91917 0.0267056 -6.66179 -2.91632 -1.50173 0.717629 14.3706 0.814196 -0.0874697 -8.55405 -12.8169 -0.93398 -11.3957 0.127868 -0.405958 1.57826 1.00489 -0.406712 1.57825 1.00481 -3.10106 -2.44405 -2.08178 -26.4728 7.83947 -11.4934 -49.6411 39.2042 7.02301 12.9979 4.10878 -24.3568 -5.55428 -0.425439 -0.525061 1.59028e-015 -3.18055e-015 -3.18055e-015 1.59028e-015 -6.36111e-015 -1.59028e-015 18.3972 7.78374 18.6874 44.5538 -19.5995 39.2741 -43.1194 -3.87825 98.7688 -22.3939 11.8237 -10.0662 -3.18055e-015 -9.54166e-015 3.18055e-015 8.82782e-031 -1.59028e-014 3.18055e-015 -0.306936 0.330725 -2.81124 
6.15707 95.6064 -8.43094 -0.0545163 -2.23281 6.82537 -0.162478 0.777211 0.647723 6.50212 -7.4053 7.82264 -0.611259 13.9829 -3.70945 -3.74646 -4.33553 -2.51376 0.567035 -9.9214 0.00824475 -6.55238 -2.9973 -1.69971 0.691421 14.2513 0.767937 -0.182787 -8.44704 -12.9732 -0.844865 -11.4114 0.115825 -0.460584 1.55182 1.29633 -0.461906 1.55183 1.29627 -3.01305 -2.54022 -2.33562 -26.3743 7.88593 -11.5292 -49.1253 39.1641 6.66811 13.0221 3.96902 -24.4558 -5.46295 -0.440401 -0.569296 -1.59028e-015 3.18055e-015 1.59028e-015 3.18055e-015 3.18056e-015 -0 14.9043 7.52186 20.7058 46.6181 -22.6013 50.0218 -46.2525 -1.16181 92.7401 -25.7494 11.4705 -10.4196 -3.18055e-015 0 7.95139e-016 -3.18055e-015 0 -0 -0.349852 0.227348 -3.02317 
6.12844 95.611 -8.47851 -0.106085 -1.96307 7.2153 -0.16891 0.738145 0.780004 6.50843 -7.77345 7.6521 -0.605788 13.9791 -4.07329 -3.71631 -4.24426 -2.46531 0.569938 -9.92627 0.00673682 -6.49602 -3.12686 -1.92262 0.702623 14.1783 0.633889 -0.238674 -8.409 -13.1609 -0.807115 -11.4171 0.100424 -0.465836 1.4731 1.56059 -0.470147 1.4731 1.5606 -3.1266 -2.79953 -2.53604 -26.4178 8.04903 -11.2321 -48.4649 39.5262 6.29908 12.7632 3.19195 -24.7886 -4.85032 -0.492871 -0.181817 1.59028e-015 -6.36111e-015 1.59028e-015 3.18055e-015 -9.54167e-015 -1.59028e-015 11.5139 7.25138 22.6118 47.9486 -25.2682 59.0029 -48.3542 2.92116 85.7037 -26.5398 9.09946 -9.99109 -3.18055e-015 -3.18055e-015 -0 -7.95139e-016 0 -0 -0.299463 0.430228 -3.25047 
6.08566 95.6092 -8.51095 -0.199884 -1.64342 7.80276 -0.176056 0.669501 0.911341 6.52154 -8.26289 7.43832 -0.50986 14.0927 -4.33263 -3.74045 -4.17153 -2.66154 0.568232 -9.93672 -0.0233362 -6.38156 -3.21226 -2.39011 0.658554 14.0758 0.593716 -0.315926 -8.38471 -13.3717 -0.747592 -11.4185 0.0618231 -0.487294 1.33522 1.82198 -0.477427 1.33522 1.82289 -3.15739 -2.72745 -2.78832 -26.5797 7.87562 -10.9835 -47.6784 39.4578 5.74963 13.0104 3.5563 -24.8035 -5.52062 -0.485443 -0.62087 -3.53112e-031 -1.27222e-014 -1.59028e-015 -3.53113e-031 -1.27222e-014 -1.59028e-015 7.98861 6.46152 24.2466 40.4475 -24.7606 61.9259 -48.9498 3.56594 72.8089 -29.3361 8.94383 -9.99488 -7.95139e-016 -3.18055e-015 1.98785e-016 -1.19271e-015 3.18056e-015 3.97569e-016 -0.203215 0.237836 -3.52965 
